<?xml version="1.0" standalone="no"?>
<!DOCTYPE svg PUBLIC "-//W3C//DTD SVG 20010904//EN"
 "http://www.w3.org/TR/2001/REC-SVG-20010904/DTD/svg10.dtd">
<svg version="1.0" xmlns="http://www.w3.org/2000/svg"
 width="3327.000000pt" height="3327.000000pt" viewBox="0 0 3327.000000 3327.000000"
 preserveAspectRatio="xMidYMid meet">

<g transform="translate(0.000000,3327.000000) scale(0.100000,-0.100000)"
fill="#000000" stroke="none">
<path d="M4100 18010 l0 -1290 1110 0 1110 0 0 310 0 310 -640 0 -640 0 0 190
0 190 603 2 602 3 0 300 0 300 -602 3 -603 2 0 175 0 175 630 0 630 0 0 310 0
310 -1100 0 -1100 0 0 -1290z"/>
<path d="M14044 19271 c-2 -2 -4 -584 -4 -1293 l0 -1288 120 0 120 0 0 560 0
560 313 0 c171 0 373 5 447 10 221 16 395 69 530 161 156 107 242 237 281 424
23 109 24 178 4 282 -20 103 -49 174 -101 249 -92 131 -259 243 -424 286 -164
42 -159 41 -728 47 -305 3 -556 4 -558 2z m993 -136 c133 -17 215 -43 303 -95
133 -78 230 -209 259 -348 15 -72 13 -213 -3 -290 -40 -185 -180 -339 -372
-408 -123 -45 -220 -54 -596 -54 l-348 0 0 605 0 605 323 0 c227 0 356 -4 434
-15z"/>
<path d="M10210 18969 c-242 -16 -440 -60 -626 -137 -317 -132 -524 -374 -595
-696 l-13 -58 -23 87 c-67 252 -204 451 -404 584 -92 62 -158 91 -276 121
-157 41 -200 43 -905 47 l-688 4 0 -1116 0 -1117 663 5 c604 4 673 6 792 25
186 29 281 64 430 159 96 61 229 200 288 300 41 71 102 232 123 328 3 17 8 26
9 20 100 -352 273 -568 580 -720 194 -96 394 -145 666 -165 286 -21 677 21
927 101 l32 11 0 524 0 524 -362 -2 -363 -3 -5 -305 -5 -305 -75 -3 c-267 -12
-466 128 -536 378 -25 90 -30 300 -10 400 45 221 190 373 417 437 53 15 99 18
264 17 214 -1 307 -14 491 -70 44 -13 83 -24 87 -24 4 0 7 132 7 294 0 272 -1
295 -17 300 -44 13 -311 47 -438 56 -157 11 -266 11 -435 -1z m-2330 -610
c182 -85 261 -283 247 -616 -8 -194 -48 -314 -133 -398 -83 -81 -163 -105
-354 -105 -98 0 -119 3 -124 16 -9 23 -7 1119 2 1128 4 4 75 6 157 4 136 -3
155 -6 205 -29z"/>
<path d="M18990 18960 c-355 -47 -692 -293 -858 -625 -81 -162 -112 -304 -112
-511 0 -219 34 -375 119 -539 198 -385 590 -625 1021 -625 340 0 645 145 888
422 93 108 174 268 217 433 32 124 44 347 26 475 -38 256 -139 458 -321 640
-185 185 -409 299 -645 330 -81 11 -255 11 -335 0z m433 -134 c331 -98 559
-362 634 -733 27 -134 24 -455 -5 -580 -55 -233 -150 -395 -318 -543 -291
-256 -822 -266 -1124 -22 -84 68 -102 87 -162 166 -93 124 -151 256 -190 431
-21 98 -18 470 6 570 48 207 126 353 261 491 134 137 284 212 495 248 14 3 90
3 170 1 121 -2 160 -7 233 -29z"/>
<path d="M16190 17816 l0 -1126 105 0 105 0 0 525 0 525 290 2 c160 0 295 1
302 2 12 1 36 -37 105 -164 22 -41 96 -176 164 -300 67 -124 167 -306 220
-405 l98 -180 115 -3 c64 -1 116 -1 116 2 0 2 -31 59 -68 127 -92 166 -125
226 -189 344 -31 55 -67 120 -80 145 -14 25 -41 74 -61 110 -91 171 -82 160
-132 160 l-45 0 -49 86 c-26 47 -46 87 -44 89 2 2 39 13 83 25 256 69 414 192
487 382 26 67 35 211 18 291 -24 118 -103 238 -210 319 -49 37 -165 93 -235
114 -159 46 -164 46 -637 51 l-458 5 0 -1126z m905 985 c286 -66 436 -242 422
-493 -12 -222 -163 -370 -446 -434 -47 -11 -154 -17 -368 -21 l-303 -6 0 493
0 492 303 -5 c259 -4 315 -8 392 -26z"/>
<path d="M20657 18933 c-9 -8 -9 -2205 -1 -2227 5 -13 24 -16 105 -16 l99 0 0
489 0 489 383 5 c375 4 384 4 482 30 258 69 424 209 488 412 30 96 32 303 3
385 -86 246 -296 388 -636 430 -92 11 -912 14 -923 3z m973 -132 c254 -73 390
-244 390 -486 0 -88 -24 -196 -60 -264 -25 -50 -105 -134 -165 -174 -53 -35
-168 -75 -252 -87 -38 -5 -206 -10 -375 -10 l-308 0 0 526 0 526 348 -5 c317
-4 353 -7 422 -26z"/>
<path d="M22560 18933 c0 -9 0 -2223 0 -2235 0 -5 299 -8 664 -8 l664 0 6 23
c3 12 6 37 6 55 l0 32 -570 0 -570 0 2 488 3 487 518 3 518 2 -3 53 -3 52
-517 3 -518 2 0 470 0 470 564 0 564 0 4 51 c1 28 1 53 -1 55 -8 7 -1331 4
-1331 -3z"/>
<path d="M24290 17815 l0 -1125 100 0 100 0 0 525 0 525 310 0 c287 0 311 -1
317 -17 4 -10 19 -38 34 -63 14 -25 42 -74 61 -110 19 -36 90 -166 158 -290
156 -285 153 -280 240 -437 l73 -133 113 0 114 0 -26 53 c-15 28 -43 81 -64
117 -21 36 -53 94 -72 130 -63 116 -115 212 -220 400 l-103 185 -47 3 -47 3
-46 86 c-48 89 -48 102 -1 103 10 0 66 16 124 35 290 97 448 311 429 580 -17
235 -189 423 -462 504 -145 43 -257 51 -684 51 l-401 0 0 -1125z m789 1005
c348 -45 541 -217 541 -480 0 -122 -43 -226 -129 -310 -69 -67 -158 -112 -288
-147 -94 -24 -110 -25 -403 -27 l-305 -1 -3 475 c-1 261 0 481 3 488 6 15 469
17 584 2z"/>
<path d="M26020 18885 l0 -55 405 -2 405 -3 3 -1065 2 -1065 105 0 105 0 2
1065 3 1065 405 3 406 2 -3 53 -3 52 -917 3 -918 2 0 -55z"/>
<path d="M28000 18933 c0 -3 6 -14 14 -22 8 -9 71 -106 141 -216 70 -110 147
-230 171 -267 24 -38 64 -98 88 -135 23 -38 113 -177 200 -310 l156 -242 0
-526 0 -525 105 0 105 0 0 533 0 534 108 171 c126 201 351 555 439 691 34 53
77 121 96 151 18 30 50 81 71 113 l37 57 -69 0 -70 0 -139 -222 c-77 -123
-198 -314 -269 -426 -71 -111 -133 -210 -139 -220 -32 -56 -128 -202 -131
-199 -8 7 -93 142 -192 302 -90 147 -160 258 -430 693 l-45 72 -124 0 c-68 0
-123 -3 -123 -7z"/>
<path d="M11280 17805 l0 -1115 963 2 962 3 0 265 0 265 -552 3 -553 2 0 165
0 165 520 0 520 0 0 260 0 260 -520 0 -520 0 0 155 0 155 545 0 545 0 0 265 0
265 -955 0 -955 0 0 -1115z"/>
<path d="M13230 18905 c0 -10 11 -15 35 -15 l34 0 3 -117 c3 -103 5 -118 21
-121 15 -3 17 8 17 117 l0 121 35 0 c24 0 35 5 35 15 0 12 -17 15 -90 15 -73
0 -90 -3 -90 -15z"/>
<path d="M13460 18785 c0 -114 2 -134 15 -129 11 5 15 30 17 117 l3 112 39
-105 c41 -110 59 -141 75 -125 5 6 27 57 49 114 21 57 42 100 45 94 3 -5 6
-42 6 -83 0 -128 0 -130 16 -130 13 0 15 22 15 135 l0 135 -28 0 c-26 0 -30
-7 -67 -106 -22 -58 -42 -107 -45 -109 -3 -2 -23 46 -45 106 -37 104 -40 109
-67 109 l-28 0 0 -135z"/>
<path d="M4110 15541 l0 -621 183 0 c272 1 369 18 464 82 98 66 137 150 131
281 -6 138 -67 224 -191 269 l-59 22 60 28 c150 71 202 234 124 387 -32 64
-91 111 -179 143 -52 19 -85 22 -295 26 l-238 4 0 -621z m407 475 c117 -31
171 -99 160 -203 -7 -62 -22 -91 -71 -128 -48 -37 -125 -55 -233 -55 l-93 0 0
200 0 200 93 0 c50 0 116 -6 144 -14z m84 -549 c77 -37 109 -89 109 -176 0
-161 -102 -230 -337 -231 l-93 0 0 221 0 222 134 -5 c119 -4 140 -7 187 -31z"/>
<path d="M7205 15558 c-132 -331 -243 -610 -247 -620 -7 -17 0 -18 80 -18 l87
0 60 160 60 160 297 0 296 0 26 -67 c14 -38 40 -108 59 -158 l33 -90 92 -3
c51 -1 92 0 92 4 0 6 -11 35 -223 574 -68 173 -154 393 -192 488 l-67 172
-107 0 -106 -1 -240 -601z m361 410 c6 -18 57 -154 112 -301 56 -148 102 -272
102 -278 0 -5 -97 -9 -239 -9 l-239 0 79 203 c44 111 99 250 122 310 23 59 44
107 47 107 3 0 10 -15 16 -32z"/>
<path d="M10250 15540 l0 -620 335 0 335 0 0 70 0 70 -245 0 -245 0 0 550 0
550 -90 0 -90 0 0 -620z"/>
<path d="M13060 15540 l0 -620 85 0 85 0 0 620 0 620 -85 0 -85 0 0 -620z"/>
</g>
</svg>
